<svg width="24.000000" height="24.000000" viewBox="0 0 24 24" fill="none" xmlns="http://www.w3.org/2000/svg" xmlns:xlink="http://www.w3.org/1999/xlink">
	<desc>
			Created with Pixso.
	</desc>
	<defs>
		<clipPath id="clip3228_44156">
			<rect width="24.000000" height="24.000000" fill="white" fill-opacity="0"/>
		</clipPath>
	</defs>
	<g clip-path="url(#clip3228_44156)">
		<path d="M18.3 5.71C17.91 5.32 17.28 5.32 16.89 5.71L12 10.59L7.11 5.7C6.72 5.31 6.08 5.31 5.7 5.7C5.31 6.09 5.31 6.72 5.7 7.11L10.58 12L5.7 16.89C5.31 17.28 5.31 17.91 5.7 18.3C6.08 18.69 6.72 18.69 7.11 18.3L12 13.41L16.89 18.3C17.28 18.69 17.91 18.69 18.3 18.3C18.69 17.91 18.69 17.28 18.3 16.89L13.41 12L18.3 7.11C18.68 6.72 18.68 6.09 18.3 5.71Z" fill="#121212" fill-opacity="1.000000" fill-rule="evenodd"/>
	</g>
</svg>
