<svg width="24.000000" height="24.000000" viewBox="0 0 24 24" fill="none" xmlns="http://www.w3.org/2000/svg" xmlns:xlink="http://www.w3.org/1999/xlink">
	<desc>
			Created with Pixso.
	</desc>
	<defs>
		<clipPath id="clip5034_196980">
			<rect id="Icon" width="24.000000" height="24.000000" fill="white" fill-opacity="0"/>
		</clipPath>
	</defs>
	<g clip-path="url(#clip5034_196980)">
		<path id="Shape" d="M14.1035 4.90527C16.4004 7.203 16.6182 10.7931 14.7568 13.3359L19.7598 18.3403C20.1504 18.7308 20.1504 19.364 19.7598 19.7545C19.3691 20.145 18.7363 20.145 18.3457 19.7545L13.3408 14.7511C10.7988 16.6133 7.20801 16.3954 4.91016 14.0977C2.37207 11.5592 2.37207 7.44373 4.91016 4.90527C7.44922 2.36682 11.5645 2.36682 14.1035 4.90527ZM6.31836 12.682C4.56152 10.9247 4.56152 8.07544 6.31836 6.31799C8.07617 4.56067 10.9248 4.56067 12.6826 6.31799C14.4395 8.07544 14.4395 10.9247 12.6826 12.682C10.9248 14.4393 8.07617 14.4393 6.31836 12.682Z" clip-rule="evenodd" fill="currentColor" fill-rule="evenodd"/>
	</g>
</svg>
