<svg width="21.333008" height="21.333008" viewBox="0 0 21.333 21.333" fill="none" xmlns="http://www.w3.org/2000/svg" xmlns:xlink="http://www.w3.org/1999/xlink">
	<desc>
			Created with Pixso.
	</desc>
	<defs>
		<clipPath id="clip4675_188902">
			<rect id="24 Universal / ds_ic_24_arrow_clockwise" width="21.333334" height="21.333334" fill="white" fill-opacity="0"/>
		</clipPath>
	</defs>
	<g clip-path="url(#clip4675_188902)">
		<path id="Shape" d="M13.7998 3.29688C12.8232 2.88281 11.7686 2.66699 10.6855 2.66699C9.60254 2.66699 8.54883 2.88281 7.57129 3.29688C6.62012 3.69922 5.75684 4.28125 5.02832 5.00977C4.2998 5.73926 3.7168 6.60254 3.31543 7.55273C2.90137 8.5293 2.68555 9.58398 2.68555 10.667C2.68555 11.75 2.90137 12.8047 3.31543 13.7812C3.7168 14.7314 4.2998 15.5947 5.02832 16.3232C5.75684 17.0527 6.62012 17.6348 7.57129 18.0371C8.54883 18.4512 9.60254 18.667 10.6855 18.667C11.7686 18.667 12.8232 18.4512 13.7998 18.0371C14.751 17.6348 15.6143 17.0527 16.3428 16.3242C17.0713 15.5947 17.6553 14.7314 18.0566 13.7812C18.248 13.3291 18.0371 12.8076 17.585 12.6162C17.1328 12.4248 16.6113 12.6367 16.4199 13.0889C16.1074 13.8271 15.6533 14.499 15.0859 15.0674C14.5186 15.6338 13.8467 16.0869 13.1074 16.4004C12.3486 16.7217 11.5293 16.8896 10.6855 16.8896C9.8418 16.8896 9.02344 16.7217 8.26367 16.4004C7.52441 16.0869 6.85254 15.6338 6.28516 15.0674C5.71875 14.499 5.26465 13.8271 4.95215 13.0889C4.63086 12.3301 4.46289 11.5107 4.46289 10.667C4.46289 9.82324 4.63086 9.00391 4.95215 8.24512C5.26465 7.50684 5.71875 6.83496 6.28613 6.2666C6.85254 5.7002 7.52441 5.24707 8.26367 4.93359C9.02344 4.6123 9.8418 4.44434 10.6855 4.44434C11.5293 4.44434 12.3486 4.6123 13.1074 4.93359C13.8467 5.24707 14.5186 5.7002 15.0859 6.2666C15.292 6.47363 15.4824 6.69336 15.6572 6.92578L14.2363 6.92578L14.1328 6.93164C13.6904 6.9834 13.3477 7.3584 13.3477 7.81445C13.3477 8.30566 13.7461 8.70312 14.2363 8.70312L17.1611 8.70312C17.1885 8.70508 17.2158 8.70508 17.2441 8.70312L17.7012 8.70312L17.8047 8.69727C18.2471 8.64648 18.5908 8.27051 18.5908 7.81445L18.5908 4.44336L18.584 4.33984C18.5332 3.89746 18.1572 3.55469 17.7012 3.55469L17.5977 3.56055C17.1553 3.61133 16.8125 3.9873 16.8125 4.44336L16.8125 5.52246C16.6631 5.34473 16.5068 5.17383 16.3428 5.00977C15.6143 4.28125 14.751 3.69922 13.7998 3.29688Z" clip-rule="evenodd" fill="#FFFFFF" fill-opacity="1.000000" fill-rule="evenodd"/>
	</g>
</svg>
