<svg width="36.000000" height="36.000000" viewBox="0 0 36 36" fill="none" xmlns="http://www.w3.org/2000/svg" xmlns:xlink="http://www.w3.org/1999/xlink">
	<desc>
			Created with Pixso.
	</desc>
	<defs>
		<clipPath id="clip1268_133516">
			<rect id="36 Stroke / ds_ic_36_basket" width="36.000000" height="36.000000" fill="white" fill-opacity="0"/>
		</clipPath>
	</defs>
	<g clip-path="url(#clip1268_133516)">
		<path id="Shape" d="M7.99609 12.9983L11.7148 12.9983L13.0273 7.75781C13.1602 7.22192 13.7031 6.89624 14.2383 7.03003C14.7734 7.16406 15.1016 7.70703 14.9648 8.24268L13.7773 12.9983L22.2148 12.9983L21.0273 8.24268C20.8906 7.70703 21.2188 7.16406 21.7539 7.03003C22.2891 6.89624 22.832 7.22192 22.9648 7.75781L24.2773 12.9983L27.9961 12.9983C28.6094 12.9983 29.082 13.5479 28.9844 14.155L26.7617 28.157C26.6836 28.6426 26.2656 29.0002 25.7734 29.0002L10.2188 29.0002C9.72656 29.0002 9.30859 28.6426 9.23047 28.157L7.00781 14.155C6.91406 13.5479 7.38281 12.9983 7.99609 12.9983ZM9.16797 14.998L26.8242 14.998L24.9219 27.0002L11.0703 27.0002L9.16797 14.998ZM13.4961 20.0002L22.5 20.0002C23.0508 20.0002 23.5 19.5525 23.5 19.0002C23.5 18.4478 23.0508 18.0002 22.5 18.0002L13.4961 18.0002C12.9453 18.0002 12.4961 18.4478 12.4961 19.0002C12.4961 19.5525 12.9453 20.0002 13.4961 20.0002ZM22.5 24.0002L13.4961 24.0002C12.9453 24.0002 12.4961 23.5525 12.4961 23.0002C12.4961 22.4478 12.9453 22.0002 13.4961 22.0002L22.5 22.0002C23.0508 22.0002 23.5 22.4478 23.5 23.0002C23.5 23.5525 23.0508 24.0002 22.5 24.0002Z" clip-rule="evenodd" fill="#FFFFFF" fill-opacity="1.000000" fill-rule="evenodd"/>
	</g>
</svg>
