<svg width="16.000000" height="16.000000" viewBox="0 0 16 16" fill="none" xmlns="http://www.w3.org/2000/svg" xmlns:xlink="http://www.w3.org/1999/xlink">
	<desc>
			Created with Pixso.
	</desc>
	<defs>
		<clipPath id="clip4192_167054">
			<rect width="16.000000" height="16.000000" fill="white" fill-opacity="0"/>
		</clipPath>
	</defs>
	<g clip-path="url(#clip4192_167054)">
		<path d="M14.66 8C14.66 4.31 11.68 1.33 8 1.33C4.31 1.33 1.33 4.31 1.33 8C1.33 11.68 4.31 14.66 8 14.66C11.68 14.66 14.66 11.68 14.66 8ZM7 8.33L7 5C7 4.62 7.29 4.33 7.66 4.33C8.04 4.33 8.33 4.62 8.33 5L8.33 7.95L9.67 8.76C9.99 8.95 10.09 9.35 9.9 9.67C9.71 9.99 9.3 10.09 8.99 9.9L7.32 8.9C7.22 8.84 7.14 8.76 7.08 8.66C7.02 8.56 7 8.45 7 8.33Z" fill="#148F2B" fill-opacity="1.000000" fill-rule="evenodd"/>
	</g>
</svg>
