<svg width="24.000000" height="24.000000" viewBox="0 0 24 24" fill="none" xmlns="http://www.w3.org/2000/svg" xmlns:xlink="http://www.w3.org/1999/xlink">
	<desc>
			Created with Pixso.
	</desc>
	<defs>
		<clipPath id="clip3845_159347">
			<rect id="24 Universal / ds_ic_24_basket" width="24.000000" height="24.000000" fill="white" fill-opacity="0"/>
		</clipPath>
	</defs>
	<g clip-path="url(#clip3845_159347)">
		<path id="Shape" d="M17.38 9L22 9C22.55 9 23 9.44 23 10C23 10.55 22.55 11 22 11L21 11L20.27 18.29C20.11 19.83 18.82 21 17.28 21L6.71 21C5.17 21 3.88 19.83 3.72 18.29L3 11L2 11C1.44 11 1 10.55 1 10C1 9.44 1.44 9 2 9L7.27 9L8.69 4.75C8.77 4.51 8.83 4.35 8.87 4.25C8.95 4.05 9.05 3.88 9.16 3.74C9.27 3.6 9.4 3.47 9.55 3.37C9.69 3.27 9.85 3.18 10.02 3.12C10.19 3.06 10.38 3.02 10.6 3.01C10.7 3 10.88 3 11.13 3L15.82 3C16.26 3 16.57 3 16.73 3.02C17.09 3.05 17.39 3.13 17.63 3.28C17.75 3.35 17.86 3.43 17.96 3.52C18.06 3.61 18.15 3.71 18.23 3.83C18.31 3.94 18.38 4.05 18.43 4.18C18.49 4.3 18.53 4.43 18.56 4.56C18.62 4.84 18.61 5.15 18.52 5.5C18.48 5.67 18.4 5.96 18.25 6.38L17.38 9ZM15.27 9L16.36 5.75C16.48 5.38 16.55 5.14 16.58 5.03C16.47 5.02 16.2 5 15.82 5L11.13 5C10.92 5 10.79 5 10.73 5C10.71 5.05 10.65 5.19 10.59 5.38L9.38 9L15.27 9ZM7 12.2L11 12.2C11.44 12.2 11.8 12.55 11.8 13C11.8 13.44 11.44 13.8 11 13.8L7 13.8C6.55 13.8 6.19 13.44 6.19 13C6.19 12.55 6.55 12.2 7 12.2Z" fill="#000000" fill-opacity="1.000000" fill-rule="evenodd"/>
	</g>
</svg>
